<svg width="24" height="24" viewBox="0 0 24 24" fill="none" xmlns="http://www.w3.org/2000/svg">
<path fill-rule="evenodd" clip-rule="evenodd" d="M11.0086 19.4241H10.9886C10.6886 19.4241 10.4386 19.1941 10.4286 18.8941C10.4186 18.6961 10.5276 18.5281 10.6846 18.4181C10.6916 18.4151 10.6976 18.4161 10.7046 18.4141C10.7046 18.4141 10.7066 18.4141 10.7086 18.4141C10.7386 18.3941 10.7586 18.3741 10.7886 18.3641C10.8486 18.3441 10.9086 18.3241 10.9686 18.3241H10.9786C11.1986 18.3241 11.3986 18.4641 11.4886 18.6541C11.4986 18.6641 11.4986 18.6641 11.4986 18.6741C11.5186 18.7341 11.5386 18.7941 11.5386 18.8641C11.5486 19.1641 11.3086 19.4241 11.0086 19.4241ZM20.8846 14.9091C20.7286 14.5241 20.2876 14.3381 19.9086 14.4931L12.4676 17.4831C12.0776 17.0641 11.5076 16.8141 10.9186 16.8241H10.8706L6.58759 6.24713C6.50159 6.03513 6.32259 5.87313 6.10259 5.80913L4.02159 5.19913C3.62259 5.08213 3.20759 5.31013 3.09159 5.70713C2.97559 6.10513 3.20259 6.52113 3.60059 6.63813L5.33359 7.14613L9.51059 17.4621L9.50859 17.4641C9.13859 17.8541 8.90859 18.3741 8.92859 18.9441C8.96859 20.0441 9.87859 20.9241 10.9886 20.9241H11.0486C12.1586 20.8941 13.0386 19.9741 13.0386 18.8741V18.8691L20.4676 15.8841C20.8526 15.7301 21.0386 15.2931 20.8846 14.9091Z" fill="black"/>
<path opacity="0.4" fill-rule="evenodd" clip-rule="evenodd" d="M11.6288 14.295C11.9988 15.215 12.7488 15.745 13.5988 15.745C13.8688 15.745 14.1488 15.695 14.4288 15.585L17.1088 14.545C17.6788 14.335 18.0888 13.955 18.3088 13.455C18.5388 12.935 18.5388 12.315 18.2988 11.705L15.3588 4.52498C14.8888 3.31498 13.7488 2.78498 12.5688 3.23498L9.88885 4.27498C9.31885 4.48498 8.90885 4.86498 8.68885 5.36498C8.45885 5.87498 8.45885 6.49498 8.69885 7.10498L11.6288 14.295Z" fill="black"/>
<path d="M12.6988 5.69431L11.5188 6.14431C11.1288 6.29431 10.9388 6.73431 11.0888 7.11431C11.1988 7.41431 11.4888 7.59431 11.7888 7.59431C11.8788 7.59431 11.9688 7.58431 12.0588 7.54431L13.2288 7.09431C13.6188 6.95431 13.8088 6.51431 13.6688 6.13431C13.5188 5.74431 13.0888 5.55431 12.6988 5.69431Z" fill="black"/>
</svg>